# xmcd
#
# Track frame offsets:
#	150
#	18144
#	35695
#	55504
#	70655
#	92095
#	109433
#	128671
#	144188
#	160980
#	175039
#	188033
#	206272
#	224043
#	241972
#	259789
#	277690
#	294986
#
# Disc length: 4278 seconds
#
# Revision: 0
# Processed by: cddbd v1.5.2PL0 Copyright (c) Steve Scherf et al.
# Submitted via: audiograbber 1.83.01
#
DISCID=f710b412
DTITLE=Various Artist - Новогодняя Дискотека 2001-2002
DYEAR=1900
DGENRE=
TTITLE0=Тату - Полчаса
TTITLE1=Турбомода - Школа
TTITLE2=Руки вверх - Маленькие девочки
TTITLE3=Макс - Не забывай
TTITLE4=Братья Улыбайте и Лика Star - Хочу и баста!
TTITLE5=Подъем - Я тебя такую
TTITLE6=Леприконсы - Тополя
TTITLE7=140 Ударов в минуту - Ой-ой-ой
TTITLE8=Вирус - Попрошу тебя
TTITLE9=Карамель - Я забуду о тебе
TTITLE10=Блестящие - Осеннее настроение
TTITLE11=Т. Буланова - Закружилась
TTITLE12=Света - Этот вечер
TTITLE13=Русский размер - Вот так
TTITLE14=Акула - Хозяйка любви
TTITLE15=Reflex - Сойти с ума
TTITLE16=П. Ростова - Для тебя
TTITLE17=Демо - 2 часа до Москвы
EXTD=
EXTT0=
EXTT1=
EXTT2=
EXTT3=
EXTT4=
EXTT5=
EXTT6=
EXTT7=
EXTT8=
EXTT9=
EXTT10=
EXTT11=
EXTT12=
EXTT13=
EXTT14=
EXTT15=
EXTT16=
EXTT17=
PLAYORDER=
